<?xml version="1.0" encoding="UTF-8" standalone="no"?>
<!DOCTYPE svg PUBLIC "-//W3C//DTD SVG 1.1//EN"
 "http://www.w3.org/Graphics/SVG/1.1/DTD/svg11.dtd">
<!-- Generated by graphviz version 2.43.0 (0)
 -->
<!-- Title: Homelab Pages: 1 -->
<svg width="1431pt" height="891pt"
 viewBox="0.00 0.00 1431.00 891.27" xmlns="http://www.w3.org/2000/svg" xmlns:xlink="http://www.w3.org/1999/xlink">
<g id="graph0" class="graph" transform="scale(1 1) rotate(0) translate(4 887.27)">
<title>Homelab</title>
<polygon fill="white" stroke="transparent" points="-4,4 -4,-887.27 1427,-887.27 1427,4 -4,4"/>
<text text-anchor="middle" x="711.5" y="-860.07" font-family="Inter, Helvetica, Arial" font-size="24.00">Tim Heverin — Homelab Architecture (Public&#45;Facing)</text>
<g id="clust1" class="cluster">
<title>cluster_legend</title>
<path fill="white" stroke="#e5e7eb" d="M20,-22.98C20,-22.98 252,-22.98 252,-22.98 258,-22.98 264,-28.98 264,-34.98 264,-34.98 264,-250.98 264,-250.98 264,-256.98 258,-262.98 252,-262.98 252,-262.98 20,-262.98 20,-262.98 14,-262.98 8,-256.98 8,-250.98 8,-250.98 8,-34.98 8,-34.98 8,-28.98 14,-22.98 20,-22.98"/>
<text text-anchor="middle" x="136" y="-246.18" font-family="Inter, Helvetica, Arial" font-size="16.00">Legend</text>
</g>
<g id="clust2" class="cluster">
<title>cluster_edge</title>
<path fill="white" stroke="#e5e7eb" d="M76.5,-270.98C76.5,-270.98 482,-270.98 482,-270.98 488,-270.98 494,-276.98 494,-282.98 494,-282.98 494,-390.98 494,-390.98 494,-396.98 488,-402.98 482,-402.98 482,-402.98 76.5,-402.98 76.5,-402.98 70.5,-402.98 64.5,-396.98 64.5,-390.98 64.5,-390.98 64.5,-282.98 64.5,-282.98 64.5,-276.98 70.5,-270.98 76.5,-270.98"/>
<text text-anchor="middle" x="279.25" y="-386.18" font-family="Inter, Helvetica, Arial" font-size="16.00">External &amp; Edge</text>
</g>
<g id="clust3" class="cluster">
<title>cluster_network</title>
<path fill="white" stroke="#e5e7eb" d="M662.5,-324.98C662.5,-324.98 805.5,-324.98 805.5,-324.98 811.5,-324.98 817.5,-330.98 817.5,-336.98 817.5,-336.98 817.5,-390.98 817.5,-390.98 817.5,-396.98 811.5,-402.98 805.5,-402.98 805.5,-402.98 662.5,-402.98 662.5,-402.98 656.5,-402.98 650.5,-396.98 650.5,-390.98 650.5,-390.98 650.5,-336.98 650.5,-336.98 650.5,-330.98 656.5,-324.98 662.5,-324.98"/>
<text text-anchor="middle" x="734" y="-386.18" font-family="Inter, Helvetica, Arial" font-size="16.00">Core Network &amp; DNS</text>
</g>
<g id="clust4" class="cluster">
<title>cluster_compute</title>
<path fill="white" stroke="#e5e7eb" d="M355.5,-410.98C355.5,-410.98 817,-410.98 817,-410.98 823,-410.98 829,-416.98 829,-422.98 829,-422.98 829,-680.98 829,-680.98 829,-686.98 823,-692.98 817,-692.98 817,-692.98 355.5,-692.98 355.5,-692.98 349.5,-692.98 343.5,-686.98 343.5,-680.98 343.5,-680.98 343.5,-422.98 343.5,-422.98 343.5,-416.98 349.5,-410.98 355.5,-410.98"/>
<text text-anchor="middle" x="586.25" y="-676.18" font-family="Inter, Helvetica, Arial" font-size="16.00">Compute &amp; Virtualization</text>
</g>
<g id="clust5" class="cluster">
<title>cluster_vms</title>
<path fill="white" stroke="#f3f4f6" d="M659,-418.98C659,-418.98 809,-418.98 809,-418.98 815,-418.98 821,-424.98 821,-430.98 821,-430.98 821,-646.98 821,-646.98 821,-652.98 815,-658.98 809,-658.98 809,-658.98 659,-658.98 659,-658.98 653,-658.98 647,-652.98 647,-646.98 647,-646.98 647,-430.98 647,-430.98 647,-424.98 653,-418.98 659,-418.98"/>
<text text-anchor="middle" x="734" y="-642.18" font-family="Inter, Helvetica, Arial" font-size="16.00">Core VMs</text>
</g>
<g id="clust6" class="cluster">
<title>cluster_services</title>
<path fill="white" stroke="#e5e7eb" d="M925,-147.98C925,-147.98 1403,-147.98 1403,-147.98 1409,-147.98 1415,-153.98 1415,-159.98 1415,-159.98 1415,-657.98 1415,-657.98 1415,-663.98 1409,-669.98 1403,-669.98 1403,-669.98 925,-669.98 925,-669.98 919,-669.98 913,-663.98 913,-657.98 913,-657.98 913,-159.98 913,-159.98 913,-153.98 919,-147.98 925,-147.98"/>
<text text-anchor="middle" x="1164" y="-653.18" font-family="Inter, Helvetica, Arial" font-size="16.00">Platform Services</text>
</g>
<g id="clust7" class="cluster">
<title>cluster_observability</title>
<path fill="white" stroke="#f3f4f6" d="M988.5,-503.98C988.5,-503.98 1117.5,-503.98 1117.5,-503.98 1123.5,-503.98 1129.5,-509.98 1129.5,-515.98 1129.5,-515.98 1129.5,-623.98 1129.5,-623.98 1129.5,-629.98 1123.5,-635.98 1117.5,-635.98 1117.5,-635.98 988.5,-635.98 988.5,-635.98 982.5,-635.98 976.5,-629.98 976.5,-623.98 976.5,-623.98 976.5,-515.98 976.5,-515.98 976.5,-509.98 982.5,-503.98 988.5,-503.98"/>
<text text-anchor="middle" x="1053" y="-619.18" font-family="Inter, Helvetica, Arial" font-size="16.00">Observability</text>
</g>
<g id="clust8" class="cluster">
<title>cluster_serverless</title>
<path fill="white" stroke="#f3f4f6" d="M933,-255.98C933,-255.98 1173,-255.98 1173,-255.98 1179,-255.98 1185,-261.98 1185,-267.98 1185,-267.98 1185,-483.98 1185,-483.98 1185,-489.98 1179,-495.98 1173,-495.98 1173,-495.98 933,-495.98 933,-495.98 927,-495.98 921,-489.98 921,-483.98 921,-483.98 921,-267.98 921,-267.98 921,-261.98 927,-255.98 933,-255.98"/>
<text text-anchor="middle" x="1053" y="-479.18" font-family="Inter, Helvetica, Arial" font-size="16.00">Serverless (LocalStack Emulation)</text>
</g>
<g id="clust9" class="cluster">
<title>cluster_workloads</title>
<path fill="white" stroke="#e5e7eb" d="M665,-184.98C665,-184.98 803,-184.98 803,-184.98 809,-184.98 815,-190.98 815,-196.98 815,-196.98 815,-304.98 815,-304.98 815,-310.98 809,-316.98 803,-316.98 803,-316.98 665,-316.98 665,-316.98 659,-316.98 653,-310.98 653,-304.98 653,-304.98 653,-196.98 653,-196.98 653,-190.98 659,-184.98 665,-184.98"/>
<text text-anchor="middle" x="734" y="-300.18" font-family="Inter, Helvetica, Arial" font-size="16.00">Workloads &amp; Apps</text>
</g>
<!-- legend1 -->
<g id="node1" class="node">
<title>legend1</title>
<path fill="#f7f7fb" stroke="#bfc3d9" d="M227.5,-228.98C227.5,-228.98 44.5,-228.98 44.5,-228.98 38.5,-228.98 32.5,-222.98 32.5,-216.98 32.5,-216.98 32.5,-204.98 32.5,-204.98 32.5,-198.98 38.5,-192.98 44.5,-192.98 44.5,-192.98 227.5,-192.98 227.5,-192.98 233.5,-192.98 239.5,-198.98 239.5,-204.98 239.5,-204.98 239.5,-216.98 239.5,-216.98 239.5,-222.98 233.5,-228.98 227.5,-228.98"/>
<text text-anchor="middle" x="136" y="-207.88" font-family="Inter, Helvetica, Arial" font-size="12.00">Solid edge: control/data plane traffic</text>
</g>
<!-- legend2 -->
<g id="node2" class="node">
<title>legend2</title>
<path fill="#f7f7fb" stroke="#bfc3d9" d="M223,-174.98C223,-174.98 49,-174.98 49,-174.98 43,-174.98 37,-168.98 37,-162.98 37,-162.98 37,-150.98 37,-150.98 37,-144.98 43,-138.98 49,-138.98 49,-138.98 223,-138.98 223,-138.98 229,-138.98 235,-144.98 235,-150.98 235,-150.98 235,-162.98 235,-162.98 235,-168.98 229,-174.98 223,-174.98"/>
<text text-anchor="middle" x="136" y="-153.88" font-family="Inter, Helvetica, Arial" font-size="12.00">Dashed edge: authentication/SSO</text>
</g>
<!-- legend3 -->
<g id="node3" class="node">
<title>legend3</title>
<path fill="#f7f7fb" stroke="#bfc3d9" d="M216,-120.98C216,-120.98 56,-120.98 56,-120.98 50,-120.98 44,-114.98 44,-108.98 44,-108.98 44,-96.98 44,-96.98 44,-90.98 50,-84.98 56,-84.98 56,-84.98 216,-84.98 216,-84.98 222,-84.98 228,-90.98 228,-96.98 228,-96.98 228,-108.98 228,-108.98 228,-114.98 222,-120.98 216,-120.98"/>
<text text-anchor="middle" x="136" y="-99.88" font-family="Inter, Helvetica, Arial" font-size="12.00">Dotted edge: metrics/logs/alerts</text>
</g>
<!-- legend4 -->
<g id="node4" class="node">
<title>legend4</title>
<path fill="#f7f7fb" stroke="#bfc3d9" d="M244,-66.98C244,-66.98 28,-66.98 28,-66.98 22,-66.98 16,-60.98 16,-54.98 16,-54.98 16,-42.98 16,-42.98 16,-36.98 22,-30.98 28,-30.98 28,-30.98 244,-30.98 244,-30.98 250,-30.98 256,-36.98 256,-42.98 256,-42.98 256,-54.98 256,-54.98 256,-60.98 250,-66.98 244,-66.98"/>
<text text-anchor="middle" x="136" y="-45.88" font-family="Inter, Helvetica, Arial" font-size="12.00">Clusters group layers or nodes by function</text>
</g>
<!-- Internet -->
<g id="node5" class="node">
<title>Internet</title>
<ellipse fill="#eef2ff" stroke="#bfc3d9" cx="136" cy="-350.98" rx="57.73" ry="18"/>
<text text-anchor="middle" x="136" y="-347.88" font-family="Inter, Helvetica, Arial" font-size="12.00">Internet / WAN</text>
</g>
<!-- GitHub -->
<g id="node6" class="node">
<title>GitHub</title>
<path fill="#f7f7fb" stroke="#bfc3d9" d="M474,-368.98C474,-368.98 362,-368.98 362,-368.98 356,-368.98 350,-362.98 350,-356.98 350,-356.98 350,-344.98 350,-344.98 350,-338.98 356,-332.98 362,-332.98 362,-332.98 474,-332.98 474,-332.98 480,-332.98 486,-338.98 486,-344.98 486,-344.98 486,-356.98 486,-356.98 486,-362.98 480,-368.98 474,-368.98"/>
<text text-anchor="middle" x="418" y="-354.38" font-family="Inter, Helvetica, Arial" font-size="12.00">GitHub</text>
<text text-anchor="middle" x="418" y="-341.38" font-family="Inter, Helvetica, Arial" font-size="12.00">(repos, Actions CI/CD)</text>
</g>
<!-- Internet&#45;&gt;GitHub -->
<g id="edge2" class="edge">
<title>Internet&#45;&gt;GitHub</title>
<path fill="none" stroke="#6b7280" d="M194,-350.98C235.99,-350.98 293.58,-350.98 339.72,-350.98"/>
<polygon fill="#6b7280" stroke="#6b7280" points="339.98,-354.48 349.98,-350.98 339.98,-347.48 339.98,-354.48"/>
<text text-anchor="middle" x="303" y="-353.98" font-family="Inter, Helvetica, Arial" font-size="10.00">Git/HTTPS</text>
</g>
<!-- ReverseProxy -->
<g id="node9" class="node">
<title>ReverseProxy</title>
<path fill="#f7f7fb" stroke="#bfc3d9" d="M458,-190.98C458,-190.98 378,-190.98 378,-190.98 372,-190.98 366,-184.98 366,-178.98 366,-178.98 366,-166.98 366,-166.98 366,-160.98 372,-154.98 378,-154.98 378,-154.98 458,-154.98 458,-154.98 464,-154.98 470,-160.98 470,-166.98 470,-166.98 470,-178.98 470,-178.98 470,-184.98 464,-190.98 458,-190.98"/>
<text text-anchor="middle" x="418" y="-176.38" font-family="Inter, Helvetica, Arial" font-size="12.00">Reverse Proxy</text>
<text text-anchor="middle" x="418" y="-163.38" font-family="Inter, Helvetica, Arial" font-size="12.00">Caddy or Traefik</text>
</g>
<!-- Internet&#45;&gt;ReverseProxy -->
<g id="edge1" class="edge">
<title>Internet&#45;&gt;ReverseProxy</title>
<path fill="none" stroke="#6b7280" d="M193.1,-347.73C216.48,-344.26 243.01,-337.39 264,-323.98 313.63,-292.29 299.95,-257.62 343.5,-217.98 352.23,-210.04 362.56,-202.72 372.67,-196.39"/>
<polygon fill="#6b7280" stroke="#6b7280" points="374.7,-199.25 381.46,-191.09 371.09,-193.26 374.7,-199.25"/>
<text text-anchor="middle" x="303" y="-318.98" font-family="Inter, Helvetica, Arial" font-size="10.00">HTTPS (443)</text>
</g>
<!-- UbuntuDocker -->
<g id="node12" class="node">
<title>UbuntuDocker</title>
<path fill="#f7f7fb" stroke="#bfc3d9" d="M768.5,-462.98C768.5,-462.98 699.5,-462.98 699.5,-462.98 693.5,-462.98 687.5,-456.98 687.5,-450.98 687.5,-450.98 687.5,-438.98 687.5,-438.98 687.5,-432.98 693.5,-426.98 699.5,-426.98 699.5,-426.98 768.5,-426.98 768.5,-426.98 774.5,-426.98 780.5,-432.98 780.5,-438.98 780.5,-438.98 780.5,-450.98 780.5,-450.98 780.5,-456.98 774.5,-462.98 768.5,-462.98"/>
<text text-anchor="middle" x="734" y="-448.38" font-family="Inter, Helvetica, Arial" font-size="12.00">ubuntu&#45;docker</text>
<text text-anchor="middle" x="734" y="-435.38" font-family="Inter, Helvetica, Arial" font-size="12.00">(Docker Apps)</text>
</g>
<!-- GitHub&#45;&gt;UbuntuDocker -->
<g id="edge4" class="edge">
<title>GitHub&#45;&gt;UbuntuDocker</title>
<path fill="none" stroke="#6b7280" d="M486.09,-361.32C549,-371.13 633.9,-384.7 637,-386.98 645,-392.88 639.81,-400.13 647,-406.98 655.77,-415.34 666.68,-422.05 677.76,-427.36"/>
<polygon fill="#6b7280" stroke="#6b7280" points="676.5,-430.63 687.06,-431.5 679.34,-424.23 676.5,-430.63"/>
<text text-anchor="middle" x="570.5" y="-389.98" font-family="Inter, Helvetica, Arial" font-size="10.00">CI/CD (pull images/manifests)</text>
</g>
<!-- UbuntuAWS -->
<g id="node14" class="node">
<title>UbuntuAWS</title>
<path fill="#f7f7fb" stroke="#bfc3d9" d="M776,-624.98C776,-624.98 692,-624.98 692,-624.98 686,-624.98 680,-618.98 680,-612.98 680,-612.98 680,-600.98 680,-600.98 680,-594.98 686,-588.98 692,-588.98 692,-588.98 776,-588.98 776,-588.98 782,-588.98 788,-594.98 788,-600.98 788,-600.98 788,-612.98 788,-612.98 788,-618.98 782,-624.98 776,-624.98"/>
<text text-anchor="middle" x="734" y="-610.38" font-family="Inter, Helvetica, Arial" font-size="12.00">ubuntu&#45;aws</text>
<text text-anchor="middle" x="734" y="-597.38" font-family="Inter, Helvetica, Arial" font-size="12.00">(LocalStack, IaC)</text>
</g>
<!-- GitHub&#45;&gt;UbuntuAWS -->
<g id="edge3" class="edge">
<title>GitHub&#45;&gt;UbuntuAWS</title>
<path fill="none" stroke="#6b7280" d="M445.81,-368.99C462,-379.04 483.43,-390.92 504,-397.98 560.6,-417.42 596.73,-374.72 637,-418.98 661.12,-445.5 624.9,-551.76 647,-579.98 653.01,-587.67 661.2,-593.21 670.14,-597.2"/>
<polygon fill="#6b7280" stroke="#6b7280" points="669.09,-600.54 679.68,-600.81 671.57,-593.99 669.09,-600.54"/>
<text text-anchor="middle" x="570.5" y="-421.98" font-family="Inter, Helvetica, Arial" font-size="10.00">CI/CD (pull IaC)</text>
</g>
<!-- EmailSMS -->
<g id="node7" class="node">
<title>EmailSMS</title>
<path fill="#f7f7fb" stroke="#bfc3d9" d="M187.5,-314.98C187.5,-314.98 84.5,-314.98 84.5,-314.98 78.5,-314.98 72.5,-308.98 72.5,-302.98 72.5,-302.98 72.5,-290.98 72.5,-290.98 72.5,-284.98 78.5,-278.98 84.5,-278.98 84.5,-278.98 187.5,-278.98 187.5,-278.98 193.5,-278.98 199.5,-284.98 199.5,-290.98 199.5,-290.98 199.5,-302.98 199.5,-302.98 199.5,-308.98 193.5,-314.98 187.5,-314.98"/>
<text text-anchor="middle" x="136" y="-300.38" font-family="Inter, Helvetica, Arial" font-size="12.00">Email / Messaging</text>
<text text-anchor="middle" x="136" y="-287.38" font-family="Inter, Helvetica, Arial" font-size="12.00">(Alerts, Notifications)</text>
</g>
<!-- PiHole -->
<g id="node8" class="node">
<title>PiHole</title>
<path fill="#f7f7fb" stroke="#bfc3d9" d="M442.5,-262.98C442.5,-262.98 393.5,-262.98 393.5,-262.98 387.5,-262.98 381.5,-256.98 381.5,-250.98 381.5,-250.98 381.5,-238.98 381.5,-238.98 381.5,-232.98 387.5,-226.98 393.5,-226.98 393.5,-226.98 442.5,-226.98 442.5,-226.98 448.5,-226.98 454.5,-232.98 454.5,-238.98 454.5,-238.98 454.5,-250.98 454.5,-250.98 454.5,-256.98 448.5,-262.98 442.5,-262.98"/>
<text text-anchor="middle" x="418" y="-248.38" font-family="Inter, Helvetica, Arial" font-size="12.00">DNS Filter</text>
<text text-anchor="middle" x="418" y="-235.38" font-family="Inter, Helvetica, Arial" font-size="12.00">Pi&#45;hole</text>
</g>
<!-- PiHole&#45;&gt;ReverseProxy -->
<g id="edge40" class="edge">
<title>PiHole&#45;&gt;ReverseProxy</title>
<path fill="none" stroke="#6b7280" d="M418,-226.57C418,-218.92 418,-209.88 418,-201.41"/>
<polygon fill="#6b7280" stroke="#6b7280" points="421.5,-201.15 418,-191.15 414.5,-201.15 421.5,-201.15"/>
<text text-anchor="middle" x="409.5" y="-206.48" font-family="Inter, Helvetica, Arial" font-size="10.00">A/CNAME for internal routes</text>
</g>
<!-- VLANs -->
<g id="node10" class="node">
<title>VLANs</title>
<path fill="#ffffff" stroke="#bfc3d9" d="M795.5,-368.98C795.5,-368.98 672.5,-368.98 672.5,-368.98 666.5,-368.98 660.5,-362.98 660.5,-356.98 660.5,-356.98 660.5,-344.98 660.5,-344.98 660.5,-338.98 666.5,-332.98 672.5,-332.98 672.5,-332.98 795.5,-332.98 795.5,-332.98 801.5,-332.98 807.5,-338.98 807.5,-344.98 807.5,-344.98 807.5,-356.98 807.5,-356.98 807.5,-362.98 801.5,-368.98 795.5,-368.98"/>
<text text-anchor="middle" x="734" y="-354.38" font-family="Inter, Helvetica, Arial" font-size="12.00">VLANs / Subnets</text>
<text text-anchor="middle" x="734" y="-341.38" font-family="Inter, Helvetica, Arial" font-size="12.00">(.pizza internal domains)</text>
</g>
<!-- PiHole&#45;&gt;VLANs -->
<g id="edge7" class="edge">
<title>PiHole&#45;&gt;VLANs</title>
<path fill="none" stroke="#6b7280" d="M454.53,-248.45C468.33,-251.44 483.34,-256.92 494,-266.98 503.61,-276.05 493.92,-286.44 504,-294.98 549.82,-333.82 578.8,-304.12 637,-318.98 648.84,-322.01 661.32,-325.75 673.24,-329.6"/>
<polygon fill="#6b7280" stroke="#6b7280" points="672.49,-333.04 683.08,-332.84 674.68,-326.39 672.49,-333.04"/>
<text text-anchor="middle" x="570.5" y="-321.98" font-family="Inter, Helvetica, Arial" font-size="10.00">DNS (53)</text>
</g>
<!-- InternalApps -->
<g id="node29" class="node">
<title>InternalApps</title>
<path fill="#f7f7fb" stroke="#bfc3d9" d="M795,-228.98C795,-228.98 673,-228.98 673,-228.98 667,-228.98 661,-222.98 661,-216.98 661,-216.98 661,-204.98 661,-204.98 661,-198.98 667,-192.98 673,-192.98 673,-192.98 795,-192.98 795,-192.98 801,-192.98 807,-198.98 807,-204.98 807,-204.98 807,-216.98 807,-216.98 807,-222.98 801,-228.98 795,-228.98"/>
<text text-anchor="middle" x="734" y="-214.38" font-family="Inter, Helvetica, Arial" font-size="12.00">Internal Apps</text>
<text text-anchor="middle" x="734" y="-201.38" font-family="Inter, Helvetica, Arial" font-size="12.00">(dashboard, tools, wikis)</text>
</g>
<!-- ReverseProxy&#45;&gt;InternalApps -->
<g id="edge5" class="edge">
<title>ReverseProxy&#45;&gt;InternalApps</title>
<path fill="none" stroke="#6b7280" d="M470.15,-179.17C519,-185.09 593.45,-194.1 650.66,-201.02"/>
<polygon fill="#6b7280" stroke="#6b7280" points="650.42,-204.52 660.77,-202.24 651.26,-197.57 650.42,-204.52"/>
<text text-anchor="middle" x="570.5" y="-200.98" font-family="Inter, Helvetica, Arial" font-size="10.00">TLS passthrough/termination</text>
</g>
<!-- PizzaStack -->
<g id="node30" class="node">
<title>PizzaStack</title>
<path fill="#f7f7fb" stroke="#bfc3d9" d="M789.5,-282.98C789.5,-282.98 678.5,-282.98 678.5,-282.98 672.5,-282.98 666.5,-276.98 666.5,-270.98 666.5,-270.98 666.5,-258.98 666.5,-258.98 666.5,-252.98 672.5,-246.98 678.5,-246.98 678.5,-246.98 789.5,-246.98 789.5,-246.98 795.5,-246.98 801.5,-252.98 801.5,-258.98 801.5,-258.98 801.5,-270.98 801.5,-270.98 801.5,-276.98 795.5,-282.98 789.5,-282.98"/>
<text text-anchor="middle" x="734" y="-268.38" font-family="Inter, Helvetica, Arial" font-size="12.00">Pizza Stack</text>
<text text-anchor="middle" x="734" y="-255.38" font-family="Inter, Helvetica, Arial" font-size="12.00">(AWS serverless emu)</text>
</g>
<!-- ReverseProxy&#45;&gt;PizzaStack -->
<g id="edge6" class="edge">
<title>ReverseProxy&#45;&gt;PizzaStack</title>
<path fill="none" stroke="#6b7280" d="M453.03,-191.07C468.3,-198.64 486.73,-207.04 504,-212.98 531.85,-222.57 601.23,-237.91 656.37,-249.44"/>
<polygon fill="#6b7280" stroke="#6b7280" points="655.99,-252.94 666.49,-251.55 657.42,-246.08 655.99,-252.94"/>
<text text-anchor="middle" x="570.5" y="-246.98" font-family="Inter, Helvetica, Arial" font-size="10.00">HTTPS routes</text>
</g>
<!-- VLANs&#45;&gt;ReverseProxy -->
<g id="edge8" class="edge">
<title>VLANs&#45;&gt;ReverseProxy</title>
<path fill="none" stroke="#94a3b8" stroke-dasharray="5,2" d="M661.72,-332.95C656.27,-329.62 651.25,-325.67 647,-320.98 634.39,-307.1 650.8,-292.69 637,-279.98 592.97,-239.45 548.03,-299.52 504,-258.98 490.2,-246.28 505.12,-233.09 494,-217.98 487.79,-209.55 479.48,-202.4 470.66,-196.44"/>
<polygon fill="#94a3b8" stroke="#94a3b8" points="472.43,-193.42 462.09,-191.1 468.73,-199.36 472.43,-193.42"/>
<text text-anchor="middle" x="570.5" y="-282.98" font-family="Inter, Helvetica, Arial" font-size="10.00">east&#45;west traffic</text>
</g>
<!-- ESXi -->
<g id="node11" class="node">
<title>ESXi</title>
<path fill="#ffffff" stroke="#bfc3d9" d="M472.5,-543.98C472.5,-543.98 363.5,-543.98 363.5,-543.98 357.5,-543.98 351.5,-537.98 351.5,-531.98 351.5,-531.98 351.5,-519.98 351.5,-519.98 351.5,-513.98 357.5,-507.98 363.5,-507.98 363.5,-507.98 472.5,-507.98 472.5,-507.98 478.5,-507.98 484.5,-513.98 484.5,-519.98 484.5,-519.98 484.5,-531.98 484.5,-531.98 484.5,-537.98 478.5,-543.98 472.5,-543.98"/>
<text text-anchor="middle" x="418" y="-522.88" font-family="Inter, Helvetica, Arial" font-size="12.00">VMware ESXi Host(s)</text>
</g>
<!-- ESXi&#45;&gt;UbuntuDocker -->
<g id="edge9" class="edge">
<title>ESXi&#45;&gt;UbuntuDocker</title>
<path fill="none" stroke="#6b7280" d="M458.64,-507.81C472.74,-501.84 488.88,-495.57 504,-490.98 562.03,-473.39 630.39,-460.65 677.23,-453.11"/>
<polygon fill="#6b7280" stroke="#6b7280" points="677.85,-456.55 687.17,-451.53 676.75,-449.64 677.85,-456.55"/>
<text text-anchor="middle" x="570.5" y="-493.98" font-family="Inter, Helvetica, Arial" font-size="10.00">VM</text>
</g>
<!-- UbuntuMonitoring -->
<g id="node13" class="node">
<title>UbuntuMonitoring</title>
<path fill="#f7f7fb" stroke="#bfc3d9" d="M778.5,-570.98C778.5,-570.98 689.5,-570.98 689.5,-570.98 683.5,-570.98 677.5,-564.98 677.5,-558.98 677.5,-558.98 677.5,-546.98 677.5,-546.98 677.5,-540.98 683.5,-534.98 689.5,-534.98 689.5,-534.98 778.5,-534.98 778.5,-534.98 784.5,-534.98 790.5,-540.98 790.5,-546.98 790.5,-546.98 790.5,-558.98 790.5,-558.98 790.5,-564.98 784.5,-570.98 778.5,-570.98"/>
<text text-anchor="middle" x="734" y="-556.38" font-family="Inter, Helvetica, Arial" font-size="12.00">ubuntu&#45;monitoring</text>
<text text-anchor="middle" x="734" y="-543.38" font-family="Inter, Helvetica, Arial" font-size="12.00">(Monitoring Stack)</text>
</g>
<!-- ESXi&#45;&gt;UbuntuMonitoring -->
<g id="edge10" class="edge">
<title>ESXi&#45;&gt;UbuntuMonitoring</title>
<path fill="none" stroke="#6b7280" d="M484.82,-531.64C538.46,-536.26 613.83,-542.74 667.41,-547.34"/>
<polygon fill="#6b7280" stroke="#6b7280" points="667.22,-550.84 677.49,-548.21 667.82,-543.87 667.22,-550.84"/>
<text text-anchor="middle" x="570.5" y="-546.98" font-family="Inter, Helvetica, Arial" font-size="10.00">VM</text>
</g>
<!-- ESXi&#45;&gt;UbuntuAWS -->
<g id="edge11" class="edge">
<title>ESXi&#45;&gt;UbuntuAWS</title>
<path fill="none" stroke="#6b7280" d="M461.33,-543.99C474.81,-549.3 489.89,-554.8 504,-558.98 559.15,-575.35 623.35,-588.3 669.72,-596.6"/>
<polygon fill="#6b7280" stroke="#6b7280" points="669.18,-600.06 679.63,-598.35 670.4,-593.16 669.18,-600.06"/>
<text text-anchor="middle" x="570.5" y="-591.98" font-family="Inter, Helvetica, Arial" font-size="10.00">VM</text>
</g>
<!-- K3sMaster -->
<g id="node15" class="node">
<title>K3sMaster</title>
<path fill="#f7f7fb" stroke="#bfc3d9" d="M801,-516.98C801,-516.98 667,-516.98 667,-516.98 661,-516.98 655,-510.98 655,-504.98 655,-504.98 655,-492.98 655,-492.98 655,-486.98 661,-480.98 667,-480.98 667,-480.98 801,-480.98 801,-480.98 807,-480.98 813,-486.98 813,-492.98 813,-492.98 813,-504.98 813,-504.98 813,-510.98 807,-516.98 801,-516.98"/>
<text text-anchor="middle" x="734" y="-502.38" font-family="Inter, Helvetica, Arial" font-size="12.00">k3s&#45;master</text>
<text text-anchor="middle" x="734" y="-489.38" font-family="Inter, Helvetica, Arial" font-size="12.00">(Kubernetes control&#45;plane)</text>
</g>
<!-- ESXi&#45;&gt;K3sMaster -->
<g id="edge12" class="edge">
<title>ESXi&#45;&gt;K3sMaster</title>
<path fill="none" stroke="#6b7280" d="M484.89,-519.71C491.34,-519.12 497.8,-518.53 504,-517.98 550.45,-513.87 602.22,-509.55 644.77,-506.08"/>
<polygon fill="#6b7280" stroke="#6b7280" points="645.13,-509.56 654.81,-505.26 644.56,-502.58 645.13,-509.56"/>
<text text-anchor="middle" x="570.5" y="-520.98" font-family="Inter, Helvetica, Arial" font-size="10.00">VM</text>
</g>
<!-- UbuntuDocker&#45;&gt;ReverseProxy -->
<g id="edge13" class="edge">
<title>UbuntuDocker&#45;&gt;ReverseProxy</title>
<path fill="none" stroke="#6b7280" d="M687.35,-434.15C672.41,-428.43 657.08,-419.82 647,-406.98 631.38,-387.1 655.06,-368.68 637,-350.98 594.26,-309.1 544.86,-373.7 504,-329.98 486.94,-311.73 507.27,-239.16 494,-217.98 488.68,-209.49 481.12,-202.39 472.82,-196.52"/>
<polygon fill="#6b7280" stroke="#6b7280" points="474.64,-193.53 464.34,-191.06 470.85,-199.41 474.64,-193.53"/>
<text text-anchor="middle" x="570.5" y="-353.98" font-family="Inter, Helvetica, Arial" font-size="10.00">Caddy/Traefik container</text>
</g>
<!-- Authentik -->
<g id="node16" class="node">
<title>Authentik</title>
<path fill="#f7f7fb" stroke="#bfc3d9" d="M1075.5,-245.98C1075.5,-245.98 1030.5,-245.98 1030.5,-245.98 1024.5,-245.98 1018.5,-239.98 1018.5,-233.98 1018.5,-233.98 1018.5,-221.98 1018.5,-221.98 1018.5,-215.98 1024.5,-209.98 1030.5,-209.98 1030.5,-209.98 1075.5,-209.98 1075.5,-209.98 1081.5,-209.98 1087.5,-215.98 1087.5,-221.98 1087.5,-221.98 1087.5,-233.98 1087.5,-233.98 1087.5,-239.98 1081.5,-245.98 1075.5,-245.98"/>
<text text-anchor="middle" x="1053" y="-231.38" font-family="Inter, Helvetica, Arial" font-size="12.00">SSO / IdP</text>
<text text-anchor="middle" x="1053" y="-218.38" font-family="Inter, Helvetica, Arial" font-size="12.00">Authentik</text>
</g>
<!-- UbuntuDocker&#45;&gt;Authentik -->
<g id="edge15" class="edge">
<title>UbuntuDocker&#45;&gt;Authentik</title>
<path fill="none" stroke="#6b7280" d="M780.88,-437.38C798.82,-431.98 817.76,-422.75 829,-406.98 838.82,-393.22 825.48,-267.37 837,-254.98 879.94,-208.82 958.79,-211.53 1008.14,-218.9"/>
<polygon fill="#6b7280" stroke="#6b7280" points="1007.77,-222.39 1018.2,-220.53 1008.89,-215.48 1007.77,-222.39"/>
<text text-anchor="middle" x="871" y="-257.98" font-family="Inter, Helvetica, Arial" font-size="10.00">IdP / OAuth</text>
</g>
<!-- Portainer -->
<g id="node17" class="node">
<title>Portainer</title>
<path fill="#f7f7fb" stroke="#bfc3d9" d="M1395,-537.98C1395,-537.98 1318,-537.98 1318,-537.98 1312,-537.98 1306,-531.98 1306,-525.98 1306,-525.98 1306,-513.98 1306,-513.98 1306,-507.98 1312,-501.98 1318,-501.98 1318,-501.98 1395,-501.98 1395,-501.98 1401,-501.98 1407,-507.98 1407,-513.98 1407,-513.98 1407,-525.98 1407,-525.98 1407,-531.98 1401,-537.98 1395,-537.98"/>
<text text-anchor="middle" x="1356.5" y="-523.38" font-family="Inter, Helvetica, Arial" font-size="12.00">Container Mgmt</text>
<text text-anchor="middle" x="1356.5" y="-510.38" font-family="Inter, Helvetica, Arial" font-size="12.00">Portainer</text>
</g>
<!-- UbuntuDocker&#45;&gt;Portainer -->
<g id="edge14" class="edge">
<title>UbuntuDocker&#45;&gt;Portainer</title>
<path fill="none" stroke="#6b7280" d="M780.7,-450.3C797.36,-454.12 815.42,-460.7 829,-471.98 893.2,-525.34 847.62,-588.08 913,-639.98 1013.22,-719.55 1065.92,-691.99 1193,-706.98 1234.93,-711.93 1253.45,-731.25 1288,-706.98 1339.69,-670.69 1351.97,-590.73 1354.77,-548.08"/>
<polygon fill="#6b7280" stroke="#6b7280" points="1358.27,-548.26 1355.3,-538.09 1351.28,-547.89 1358.27,-548.26"/>
<text text-anchor="middle" x="1053" y="-708.98" font-family="Inter, Helvetica, Arial" font-size="10.00">Docker socket</text>
</g>
<!-- Zabbix -->
<g id="node18" class="node">
<title>Zabbix</title>
<path fill="#f7f7fb" stroke="#bfc3d9" d="M1090.5,-191.98C1090.5,-191.98 1015.5,-191.98 1015.5,-191.98 1009.5,-191.98 1003.5,-185.98 1003.5,-179.98 1003.5,-179.98 1003.5,-167.98 1003.5,-167.98 1003.5,-161.98 1009.5,-155.98 1015.5,-155.98 1015.5,-155.98 1090.5,-155.98 1090.5,-155.98 1096.5,-155.98 1102.5,-161.98 1102.5,-167.98 1102.5,-167.98 1102.5,-179.98 1102.5,-179.98 1102.5,-185.98 1096.5,-191.98 1090.5,-191.98"/>
<text text-anchor="middle" x="1053" y="-177.38" font-family="Inter, Helvetica, Arial" font-size="12.00">Infra Monitoring</text>
<text text-anchor="middle" x="1053" y="-164.38" font-family="Inter, Helvetica, Arial" font-size="12.00">Zabbix Server</text>
</g>
<!-- UbuntuMonitoring&#45;&gt;Zabbix -->
<g id="edge20" class="edge">
<title>UbuntuMonitoring&#45;&gt;Zabbix</title>
<path fill="none" stroke="#6b7280" d="M790.53,-548.9C805.26,-545 819.66,-538.08 829,-525.98 840.04,-511.69 824.89,-214.38 837,-200.98 875.36,-158.57 943.98,-157.01 993.4,-162.74"/>
<polygon fill="#6b7280" stroke="#6b7280" points="992.95,-166.21 1003.32,-164.01 993.85,-159.27 992.95,-166.21"/>
</g>
<!-- Prometheus -->
<g id="node19" class="node">
<title>Prometheus</title>
<path fill="#f7f7fb" stroke="#bfc3d9" d="M1385,-742.98C1385,-742.98 1328,-742.98 1328,-742.98 1322,-742.98 1316,-736.98 1316,-730.98 1316,-730.98 1316,-718.98 1316,-718.98 1316,-712.98 1322,-706.98 1328,-706.98 1328,-706.98 1385,-706.98 1385,-706.98 1391,-706.98 1397,-712.98 1397,-718.98 1397,-718.98 1397,-730.98 1397,-730.98 1397,-736.98 1391,-742.98 1385,-742.98"/>
<text text-anchor="middle" x="1356.5" y="-721.88" font-family="Inter, Helvetica, Arial" font-size="12.00">Prometheus</text>
</g>
<!-- UbuntuMonitoring&#45;&gt;Prometheus -->
<g id="edge16" class="edge">
<title>UbuntuMonitoring&#45;&gt;Prometheus</title>
<path fill="none" stroke="#6b7280" d="M790.96,-561.67C804.36,-565.66 817.97,-571.49 829,-579.98 886.78,-624.51 854.9,-676.88 913,-720.98 980.73,-772.39 1217.59,-844.65 1288,-796.98 1305.84,-784.91 1291.7,-768.09 1306,-751.98 1306.63,-751.28 1307.27,-750.59 1307.94,-749.91"/>
<polygon fill="#6b7280" stroke="#6b7280" points="1310.43,-752.39 1315.77,-743.24 1305.89,-747.07 1310.43,-752.39"/>
</g>
<!-- Loki -->
<g id="node20" class="node">
<title>Loki</title>
<path fill="#f7f7fb" stroke="#bfc3d9" d="M1371.5,-796.98C1371.5,-796.98 1341.5,-796.98 1341.5,-796.98 1335.5,-796.98 1329.5,-790.98 1329.5,-784.98 1329.5,-784.98 1329.5,-772.98 1329.5,-772.98 1329.5,-766.98 1335.5,-760.98 1341.5,-760.98 1341.5,-760.98 1371.5,-760.98 1371.5,-760.98 1377.5,-760.98 1383.5,-766.98 1383.5,-772.98 1383.5,-772.98 1383.5,-784.98 1383.5,-784.98 1383.5,-790.98 1377.5,-796.98 1371.5,-796.98"/>
<text text-anchor="middle" x="1356.5" y="-775.88" font-family="Inter, Helvetica, Arial" font-size="12.00">Loki</text>
</g>
<!-- UbuntuMonitoring&#45;&gt;Loki -->
<g id="edge17" class="edge">
<title>UbuntuMonitoring&#45;&gt;Loki</title>
<path fill="none" stroke="#6b7280" d="M790.98,-557.75C805.36,-561.71 819.45,-568.49 829,-579.98 840.98,-594.41 830.76,-646.3 837,-663.98 857.4,-721.75 861.18,-746.31 913,-778.98 1054.74,-868.36 1126.15,-861.38 1288,-817.98 1300.05,-814.75 1312.18,-808.79 1322.76,-802.49"/>
<polygon fill="#6b7280" stroke="#6b7280" points="1324.64,-805.44 1331.25,-797.16 1320.92,-799.51 1324.64,-805.44"/>
</g>
<!-- Grafana -->
<g id="node21" class="node">
<title>Grafana</title>
<path fill="#f7f7fb" stroke="#bfc3d9" d="M1374,-139.98C1374,-139.98 1339,-139.98 1339,-139.98 1333,-139.98 1327,-133.98 1327,-127.98 1327,-127.98 1327,-115.98 1327,-115.98 1327,-109.98 1333,-103.98 1339,-103.98 1339,-103.98 1374,-103.98 1374,-103.98 1380,-103.98 1386,-109.98 1386,-115.98 1386,-115.98 1386,-127.98 1386,-127.98 1386,-133.98 1380,-139.98 1374,-139.98"/>
<text text-anchor="middle" x="1356.5" y="-118.88" font-family="Inter, Helvetica, Arial" font-size="12.00">Grafana</text>
</g>
<!-- UbuntuMonitoring&#45;&gt;Grafana -->
<g id="edge18" class="edge">
<title>UbuntuMonitoring&#45;&gt;Grafana</title>
<path fill="none" stroke="#6b7280" d="M790.55,-548.92C805.29,-545.02 819.67,-538.09 829,-525.98 841.38,-509.92 824.49,-176.95 837,-160.98 938.08,-31.99 1030.55,-86.5 1193,-64.98 1234.86,-59.44 1248.35,-50.48 1288,-64.98 1305.42,-71.35 1321.44,-84.42 1333.5,-96.44"/>
<polygon fill="#6b7280" stroke="#6b7280" points="1331.03,-98.92 1340.47,-103.72 1336.08,-94.07 1331.03,-98.92"/>
</g>
<!-- Alertmanager -->
<g id="node22" class="node">
<title>Alertmanager</title>
<path fill="#f7f7fb" stroke="#bfc3d9" d="M1389,-61.98C1389,-61.98 1324,-61.98 1324,-61.98 1318,-61.98 1312,-55.98 1312,-49.98 1312,-49.98 1312,-37.98 1312,-37.98 1312,-31.98 1318,-25.98 1324,-25.98 1324,-25.98 1389,-25.98 1389,-25.98 1395,-25.98 1401,-31.98 1401,-37.98 1401,-37.98 1401,-49.98 1401,-49.98 1401,-55.98 1395,-61.98 1389,-61.98"/>
<text text-anchor="middle" x="1356.5" y="-40.88" font-family="Inter, Helvetica, Arial" font-size="12.00">Alertmanager</text>
</g>
<!-- UbuntuMonitoring&#45;&gt;Alertmanager -->
<g id="edge19" class="edge">
<title>UbuntuMonitoring&#45;&gt;Alertmanager</title>
<path fill="none" stroke="#6b7280" d="M790.58,-548.94C805.31,-545.04 819.69,-538.1 829,-525.98 843.59,-506.99 823.68,-114.89 837,-94.98 880.72,-29.67 1002.71,-24.83 1193,-5.98 1235.02,-1.82 1247.16,4.72 1288,-5.98 1299.67,-9.04 1311.45,-14.63 1321.83,-20.59"/>
<polygon fill="#6b7280" stroke="#6b7280" points="1320.19,-23.68 1330.56,-25.87 1323.82,-17.7 1320.19,-23.68"/>
</g>
<!-- APIGW -->
<g id="node25" class="node">
<title>APIGW</title>
<path fill="#f7f7fb" stroke="#bfc3d9" d="M1084,-299.98C1084,-299.98 1022,-299.98 1022,-299.98 1016,-299.98 1010,-293.98 1010,-287.98 1010,-287.98 1010,-275.98 1010,-275.98 1010,-269.98 1016,-263.98 1022,-263.98 1022,-263.98 1084,-263.98 1084,-263.98 1090,-263.98 1096,-269.98 1096,-275.98 1096,-275.98 1096,-287.98 1096,-287.98 1096,-293.98 1090,-299.98 1084,-299.98"/>
<text text-anchor="middle" x="1053" y="-278.88" font-family="Inter, Helvetica, Arial" font-size="12.00">API Gateway</text>
</g>
<!-- UbuntuAWS&#45;&gt;APIGW -->
<g id="edge33" class="edge">
<title>UbuntuAWS&#45;&gt;APIGW</title>
<path fill="none" stroke="#6b7280" d="M788.03,-603.49C803.61,-599.72 819.1,-592.72 829,-579.98 847.14,-556.64 817.36,-336.09 837,-313.98 857.89,-290.48 942.67,-284.02 999.32,-282.37"/>
<polygon fill="#6b7280" stroke="#6b7280" points="999.64,-285.86 1009.55,-282.11 999.47,-278.86 999.64,-285.86"/>
</g>
<!-- Lambda -->
<g id="node26" class="node">
<title>Lambda</title>
<path fill="#f7f7fb" stroke="#bfc3d9" d="M1071,-461.98C1071,-461.98 1035,-461.98 1035,-461.98 1029,-461.98 1023,-455.98 1023,-449.98 1023,-449.98 1023,-437.98 1023,-437.98 1023,-431.98 1029,-425.98 1035,-425.98 1035,-425.98 1071,-425.98 1071,-425.98 1077,-425.98 1083,-431.98 1083,-437.98 1083,-437.98 1083,-449.98 1083,-449.98 1083,-455.98 1077,-461.98 1071,-461.98"/>
<text text-anchor="middle" x="1053" y="-440.88" font-family="Inter, Helvetica, Arial" font-size="12.00">Lambda</text>
</g>
<!-- UbuntuAWS&#45;&gt;Lambda -->
<g id="edge34" class="edge">
<title>UbuntuAWS&#45;&gt;Lambda</title>
<path fill="none" stroke="#6b7280" d="M788.44,-596.26C802.17,-592.28 816.57,-586.97 829,-579.98 869.03,-557.49 873.68,-543.57 905,-509.98 908.88,-505.82 908.43,-503.38 913,-499.98 943.16,-477.55 983.54,-462.6 1013.01,-453.84"/>
<polygon fill="#6b7280" stroke="#6b7280" points="1014.29,-457.11 1022.94,-450.99 1012.37,-450.38 1014.29,-457.11"/>
</g>
<!-- DynamoDB -->
<g id="node27" class="node">
<title>DynamoDB</title>
<path fill="#f7f7fb" stroke="#bfc3d9" d="M1080.5,-407.98C1080.5,-407.98 1025.5,-407.98 1025.5,-407.98 1019.5,-407.98 1013.5,-401.98 1013.5,-395.98 1013.5,-395.98 1013.5,-383.98 1013.5,-383.98 1013.5,-377.98 1019.5,-371.98 1025.5,-371.98 1025.5,-371.98 1080.5,-371.98 1080.5,-371.98 1086.5,-371.98 1092.5,-377.98 1092.5,-383.98 1092.5,-383.98 1092.5,-395.98 1092.5,-395.98 1092.5,-401.98 1086.5,-407.98 1080.5,-407.98"/>
<text text-anchor="middle" x="1053" y="-386.88" font-family="Inter, Helvetica, Arial" font-size="12.00">DynamoDB</text>
</g>
<!-- UbuntuAWS&#45;&gt;DynamoDB -->
<g id="edge35" class="edge">
<title>UbuntuAWS&#45;&gt;DynamoDB</title>
<path fill="none" stroke="#6b7280" d="M788.36,-602.72C803.58,-598.87 818.78,-592.02 829,-579.98 838.85,-568.39 831.13,-526.02 837,-511.98 857.85,-462.1 866.73,-444.97 913,-416.98 940.16,-400.55 975.29,-393.83 1003.44,-391.2"/>
<polygon fill="#6b7280" stroke="#6b7280" points="1003.77,-394.68 1013.47,-390.41 1003.22,-387.71 1003.77,-394.68"/>
</g>
<!-- S3 -->
<g id="node28" class="node">
<title>S3</title>
<path fill="#f7f7fb" stroke="#bfc3d9" d="M1068,-353.98C1068,-353.98 1038,-353.98 1038,-353.98 1032,-353.98 1026,-347.98 1026,-341.98 1026,-341.98 1026,-329.98 1026,-329.98 1026,-323.98 1032,-317.98 1038,-317.98 1038,-317.98 1068,-317.98 1068,-317.98 1074,-317.98 1080,-323.98 1080,-329.98 1080,-329.98 1080,-341.98 1080,-341.98 1080,-347.98 1074,-353.98 1068,-353.98"/>
<text text-anchor="middle" x="1053" y="-332.88" font-family="Inter, Helvetica, Arial" font-size="12.00">S3</text>
</g>
<!-- UbuntuAWS&#45;&gt;S3 -->
<g id="edge36" class="edge">
<title>UbuntuAWS&#45;&gt;S3</title>
<path fill="none" stroke="#6b7280" d="M788.46,-603.32C803.86,-599.52 819.15,-592.55 829,-579.98 843.2,-561.87 821.83,-390.3 837,-372.98 881.18,-322.56 967.06,-324.18 1015.84,-329.98"/>
<polygon fill="#6b7280" stroke="#6b7280" points="1015.58,-333.47 1025.95,-331.3 1016.49,-326.53 1015.58,-333.47"/>
</g>
<!-- Authentik&#45;&gt;ReverseProxy -->
<g id="edge32" class="edge">
<title>Authentik&#45;&gt;ReverseProxy</title>
<path fill="none" stroke="#6b7280" stroke-dasharray="5,2" d="M1018.22,-222.99C989.85,-218.43 948.39,-210.88 913,-200.98 874.68,-190.27 868.17,-176.98 829,-169.98 749.37,-155.76 727.89,-169.45 647,-169.98 590.51,-170.36 526.15,-171.25 480.25,-171.96"/>
<polygon fill="#6b7280" stroke="#6b7280" points="480.1,-168.46 470.16,-172.12 480.21,-175.46 480.1,-168.46"/>
<text text-anchor="middle" x="734" y="-172.98" font-family="Inter, Helvetica, Arial" font-size="10.00">forward auth (optional)</text>
</g>
<!-- Authentik&#45;&gt;Portainer -->
<g id="edge30" class="edge">
<title>Authentik&#45;&gt;Portainer</title>
<path fill="none" stroke="#6b7280" stroke-dasharray="5,2" d="M1087.7,-226.95C1115.94,-227.67 1156.14,-232.55 1185,-251.98 1274.35,-312.16 1326.62,-436.54 1346.37,-492.11"/>
<polygon fill="#6b7280" stroke="#6b7280" points="1343.09,-493.35 1349.68,-501.65 1349.71,-491.06 1343.09,-493.35"/>
<text text-anchor="middle" x="1240.5" y="-368.98" font-family="Inter, Helvetica, Arial" font-size="10.00">SSO / OIDC</text>
</g>
<!-- Authentik&#45;&gt;Grafana -->
<g id="edge29" class="edge">
<title>Authentik&#45;&gt;Grafana</title>
<path fill="none" stroke="#6b7280" stroke-dasharray="5,2" d="M1087.59,-231.21C1117.77,-232.08 1160.93,-227.9 1185,-200.98 1197.94,-186.51 1178.66,-127.07 1193,-113.98 1226,-83.88 1280.23,-94.02 1316.88,-106.17"/>
<polygon fill="#6b7280" stroke="#6b7280" points="1316.12,-109.62 1326.72,-109.62 1318.44,-103.01 1316.12,-109.62"/>
<text text-anchor="middle" x="1240.5" y="-116.98" font-family="Inter, Helvetica, Arial" font-size="10.00">SSO / OIDC</text>
</g>
<!-- Authentik&#45;&gt;InternalApps -->
<g id="edge31" class="edge">
<title>Authentik&#45;&gt;InternalApps</title>
<path fill="none" stroke="#6b7280" stroke-dasharray="5,2" d="M1018.28,-221.78C988.58,-216.64 944.09,-209.76 905,-206.98 874.85,-204.84 867.22,-206.39 837,-206.98 830.66,-207.11 824.11,-207.28 817.51,-207.47"/>
<polygon fill="#6b7280" stroke="#6b7280" points="817.04,-203.99 807.15,-207.8 817.26,-210.98 817.04,-203.99"/>
<text text-anchor="middle" x="871" y="-209.98" font-family="Inter, Helvetica, Arial" font-size="10.00">SSO / OIDC</text>
</g>
<!-- Zabbix&#45;&gt;EmailSMS -->
<g id="edge27" class="edge">
<title>Zabbix&#45;&gt;EmailSMS</title>
<path fill="none" stroke="#6b7280" stroke-dasharray="1,5" d="M1003.07,-157.51C883.66,-120.29 570.52,-40.81 343.5,-145.98 300.15,-166.07 295.94,-185.54 274,-227.98 265.78,-243.88 276.77,-254.45 264,-266.98 249.47,-281.24 229.51,-289.18 209.7,-293.49"/>
<polygon fill="#6b7280" stroke="#6b7280" points="208.89,-290.08 199.71,-295.37 210.18,-296.96 208.89,-290.08"/>
<text text-anchor="middle" x="570.5" y="-102.98" font-family="Inter, Helvetica, Arial" font-size="10.00">alerts</text>
</g>
<!-- Zabbix&#45;&gt;Grafana -->
<g id="edge28" class="edge">
<title>Zabbix&#45;&gt;Grafana</title>
<path fill="none" stroke="#6b7280" stroke-dasharray="1,5" d="M1072.69,-155.61C1097.66,-132.49 1144.41,-94 1193,-78.98 1233.34,-66.52 1247.46,-67.17 1288,-78.98 1301.26,-82.85 1314.4,-90.2 1325.52,-97.74"/>
<polygon fill="#6b7280" stroke="#6b7280" points="1323.79,-100.81 1333.96,-103.77 1327.86,-95.11 1323.79,-100.81"/>
<text text-anchor="middle" x="1240.5" y="-81.98" font-family="Inter, Helvetica, Arial" font-size="10.00">datasource (optional)</text>
</g>
<!-- Prometheus&#45;&gt;Grafana -->
<g id="edge26" class="edge">
<title>Prometheus&#45;&gt;Grafana</title>
<path fill="none" stroke="#6b7280" stroke-dasharray="1,5" d="M1315.96,-723.95C1290.29,-720.93 1258.85,-712.35 1242,-689.48 1205.8,-640.36 1269.58,-192.95 1306,-143.98 1309.13,-139.78 1313.24,-136.36 1317.76,-133.59"/>
<polygon fill="#6b7280" stroke="#6b7280" points="1319.46,-136.65 1326.82,-129.03 1316.31,-130.4 1319.46,-136.65"/>
<text text-anchor="middle" x="1240.5" y="-681.48" font-family="Inter, Helvetica, Arial" font-size="10.00">metrics</text>
</g>
<!-- Prometheus&#45;&gt;Alertmanager -->
<g id="edge23" class="edge">
<title>Prometheus&#45;&gt;Alertmanager</title>
<path fill="none" stroke="#6b7280" stroke-dasharray="1,5" d="M1332.52,-706.91C1322.63,-698.11 1312.08,-686.69 1306,-673.98 1202.86,-458.33 1259.35,-378.16 1246,-139.48 1245.73,-134.6 1243.83,-132.87 1246,-128.48 1259.14,-101.89 1285.1,-81.37 1308.56,-67.21"/>
<polygon fill="#6b7280" stroke="#6b7280" points="1310.5,-70.13 1317.4,-62.1 1306.99,-64.08 1310.5,-70.13"/>
<text text-anchor="middle" x="1240.5" y="-131.48" font-family="Inter, Helvetica, Arial" font-size="10.00">alerts</text>
</g>
<!-- Loki&#45;&gt;Grafana -->
<g id="edge25" class="edge">
<title>Loki&#45;&gt;Grafana</title>
<path fill="none" stroke="#6b7280" stroke-dasharray="1,5" d="M1329.47,-765.77C1321.71,-761.65 1313.36,-756.89 1306,-751.98 1278.79,-733.86 1263.02,-735.02 1249,-705.48 1246.9,-701.07 1248.75,-699.37 1249,-694.48 1255.34,-571.66 1233.39,-243.25 1306,-143.98 1309.1,-139.75 1313.18,-136.32 1317.7,-133.55"/>
<polygon fill="#6b7280" stroke="#6b7280" points="1319.4,-136.61 1326.75,-128.98 1316.24,-130.36 1319.4,-136.61"/>
<text text-anchor="middle" x="1240.5" y="-697.48" font-family="Inter, Helvetica, Arial" font-size="10.00">logs</text>
</g>
<!-- Alertmanager&#45;&gt;EmailSMS -->
<g id="edge24" class="edge">
<title>Alertmanager&#45;&gt;EmailSMS</title>
<path fill="none" stroke="#6b7280" stroke-dasharray="1,5" d="M1311.9,-38.33C1253.35,-31.23 1146.02,-19.98 1054,-19.98 417,-19.98 417,-19.98 417,-19.98 331.7,-19.98 312.04,-71.64 274,-147.98 262.16,-171.74 281.32,-246.88 264,-266.98 250.34,-282.84 230,-291.16 209.58,-295.31"/>
<polygon fill="#6b7280" stroke="#6b7280" points="208.84,-291.89 199.57,-297.03 210.02,-298.79 208.84,-291.89"/>
<text text-anchor="middle" x="734" y="-22.98" font-family="Inter, Helvetica, Arial" font-size="10.00">notifications</text>
</g>
<!-- Blackbox -->
<g id="node23" class="node">
<title>Blackbox</title>
<path fill="#f7f7fb" stroke="#bfc3d9" d="M1098,-547.98C1098,-547.98 1008,-547.98 1008,-547.98 1002,-547.98 996,-541.98 996,-535.98 996,-535.98 996,-523.98 996,-523.98 996,-517.98 1002,-511.98 1008,-511.98 1008,-511.98 1098,-511.98 1098,-511.98 1104,-511.98 1110,-517.98 1110,-523.98 1110,-523.98 1110,-535.98 1110,-535.98 1110,-541.98 1104,-547.98 1098,-547.98"/>
<text text-anchor="middle" x="1053" y="-526.88" font-family="Inter, Helvetica, Arial" font-size="12.00">Blackbox Exporter</text>
</g>
<!-- Blackbox&#45;&gt;Prometheus -->
<g id="edge22" class="edge">
<title>Blackbox&#45;&gt;Prometheus</title>
<path fill="none" stroke="#6b7280" stroke-dasharray="1,5" d="M1110.26,-526.85C1136.92,-528.6 1166.84,-535.85 1185,-556.98 1196.09,-569.9 1181.2,-697.71 1193,-709.98 1221.35,-739.49 1269.43,-740.48 1305.96,-735.73"/>
<polygon fill="#6b7280" stroke="#6b7280" points="1306.55,-739.18 1315.93,-734.26 1305.52,-732.26 1306.55,-739.18"/>
<text text-anchor="middle" x="1240.5" y="-739.98" font-family="Inter, Helvetica, Arial" font-size="10.00">probe targets</text>
</g>
<!-- NodeExporter -->
<g id="node24" class="node">
<title>NodeExporter</title>
<path fill="#f7f7fb" stroke="#bfc3d9" d="M1109.5,-601.98C1109.5,-601.98 996.5,-601.98 996.5,-601.98 990.5,-601.98 984.5,-595.98 984.5,-589.98 984.5,-589.98 984.5,-577.98 984.5,-577.98 984.5,-571.98 990.5,-565.98 996.5,-565.98 996.5,-565.98 1109.5,-565.98 1109.5,-565.98 1115.5,-565.98 1121.5,-571.98 1121.5,-577.98 1121.5,-577.98 1121.5,-589.98 1121.5,-589.98 1121.5,-595.98 1115.5,-601.98 1109.5,-601.98"/>
<text text-anchor="middle" x="1053" y="-587.38" font-family="Inter, Helvetica, Arial" font-size="12.00">Node Exporter</text>
<text text-anchor="middle" x="1053" y="-574.38" font-family="Inter, Helvetica, Arial" font-size="12.00">(Agents on hosts/VMs)</text>
</g>
<!-- NodeExporter&#45;&gt;Prometheus -->
<g id="edge21" class="edge">
<title>NodeExporter&#45;&gt;Prometheus</title>
<path fill="none" stroke="#6b7280" stroke-dasharray="1,5" d="M1085.64,-602.11C1116.63,-621.71 1162.37,-656 1185,-698.98 1191.99,-712.25 1181.79,-756.03 1193,-765.98 1224.58,-794.01 1248.06,-779.69 1288,-765.98 1297.59,-762.7 1297.52,-757.54 1306,-751.98 1307.9,-750.74 1309.85,-749.5 1311.85,-748.28"/>
<polygon fill="#6b7280" stroke="#6b7280" points="1313.91,-751.13 1320.73,-743.02 1310.34,-745.1 1313.91,-751.13"/>
<text text-anchor="middle" x="1240.5" y="-784.98" font-family="Inter, Helvetica, Arial" font-size="10.00">metrics scrape (9100)</text>
</g>
<!-- PizzaStack&#45;&gt;APIGW -->
<g id="edge37" class="edge">
<title>PizzaStack&#45;&gt;APIGW</title>
<path fill="none" stroke="#6b7280" d="M801.84,-268.57C860.89,-271.74 945.79,-276.29 999.92,-279.19"/>
<polygon fill="#6b7280" stroke="#6b7280" points="999.81,-282.69 1009.98,-279.73 1000.18,-275.7 999.81,-282.69"/>
<text text-anchor="middle" x="871" y="-276.98" font-family="Inter, Helvetica, Arial" font-size="10.00">invoke</text>
</g>
<!-- PizzaStack&#45;&gt;DynamoDB -->
<g id="edge39" class="edge">
<title>PizzaStack&#45;&gt;DynamoDB</title>
<path fill="none" stroke="#6b7280" d="M765.21,-283.12C807.7,-308.36 883.23,-352.2 913,-362.98 942.1,-373.53 976.2,-380.23 1003.35,-384.32"/>
<polygon fill="#6b7280" stroke="#6b7280" points="1002.99,-387.81 1013.38,-385.76 1003.98,-380.88 1002.99,-387.81"/>
<text text-anchor="middle" x="871" y="-361.98" font-family="Inter, Helvetica, Arial" font-size="10.00">state/data</text>
</g>
<!-- PizzaStack&#45;&gt;S3 -->
<g id="edge38" class="edge">
<title>PizzaStack&#45;&gt;S3</title>
<path fill="none" stroke="#6b7280" d="M801.59,-282.29C834.94,-290.74 876.01,-300.82 913,-308.98 947.7,-316.64 987.52,-324.26 1015.63,-329.44"/>
<polygon fill="#6b7280" stroke="#6b7280" points="1015.32,-332.94 1025.79,-331.3 1016.58,-326.06 1015.32,-332.94"/>
<text text-anchor="middle" x="871" y="-308.98" font-family="Inter, Helvetica, Arial" font-size="10.00">artifacts/assets</text>
</g>
</g>
</svg>
